<svg xmlns="http://www.w3.org/2000/svg" viewBox="0 0 40.04 40.04"><defs><style>.cls-1{fill:#eaf6fc;}</style></defs><title>one</title><g id="Layer_2" data-name="Layer 2"><g id="Layer_1-2" data-name="Layer 1"><path class="cls-1" d="M20,0a20,20,0,0,0-8.17,38.29V16.11L9.08,17.29a3.3,3.3,0,0,1-1.21.26A1.94,1.94,0,0,1,6.48,17a1.8,1.8,0,0,1-.55-1.37,2,2,0,0,1,.3-1.11,1.8,1.8,0,0,1,.95-.71l5.93-2.12a2.43,2.43,0,0,1,.71-.15,1.8,1.8,0,0,1,1.37.55,1.92,1.92,0,0,1,.53,1.42V39.26a2.83,2.83,0,0,1,0,.3A19.79,19.79,0,0,0,20,40,20,20,0,0,0,20,0Z"/></g></g></svg>