<svg xmlns="http://www.w3.org/2000/svg" viewBox="0 0 40.04 39.39"><defs><style>.cls-1{fill:#eaf6fc;}</style></defs><title>two</title><g id="Layer_2" data-name="Layer 2"><g id="Layer_1-2" data-name="Layer 1"><path class="cls-1" d="M20,0A20,20,0,0,0,8.74,36.56l9.64-11.27c1.6-1.82,2.39-3.4,2.39-4.74A5.86,5.86,0,0,0,19.5,16.6,4.37,4.37,0,0,0,16,15.12a4.76,4.76,0,0,0-2.58.74,5.14,5.14,0,0,0-1.84,2,5.56,5.56,0,0,0-.67,2.69A1.91,1.91,0,0,1,9,22.45a1.86,1.86,0,0,1-1.37-.57,1.82,1.82,0,0,1-.57-1.33A9,9,0,0,1,8.25,16a8.63,8.63,0,0,1,3.2-3.23A9,9,0,0,1,16,11.56a8.76,8.76,0,0,1,4.46,1.1,7.46,7.46,0,0,1,3,3.13,10.34,10.34,0,0,1,1,4.76,7.28,7.28,0,0,1-1,3.47,17.83,17.83,0,0,1-2.41,3.44l-8.69,9.87H23.05a1.89,1.89,0,0,1,1.4.57A1.85,1.85,0,0,1,25,39.26c0,.05,0,.09,0,.13A20,20,0,0,0,20,0Z"/></g></g></svg>